<svg width="267" height="48" viewBox="0 0 267 48" fill="none" xmlns="http://www.w3.org/2000/svg">
<path fill-rule="evenodd" clip-rule="evenodd" d="M80.3228 43.581C40.5126 44.1997 40.2717 44.0288 39.0759 42.7588C38.4309 42.0737 32.6468 41.1903 26.2225 40.7956C18.5279 40.3228 13.8939 39.528 12.6432 38.4665C11.599 37.5802 10.2396 36.8551 9.6223 36.8551C9.00502 36.8551 8.5 35.8652 8.5 34.6554C8.5 32.9019 9.28186 32.4556 12.3534 32.4556C14.4728 32.4556 16.2068 31.9607 16.2068 31.3557C16.2068 30.7508 15.1825 30.2559 13.9305 30.2559C10.6399 30.2559 9.68963 28.0809 12.9125 27.9259C14.4019 27.8543 16.0162 27.8543 16.5 27.9259C16.9838 27.9975 17.3796 27.5612 17.3796 26.9562C17.3796 26.3513 16.0602 25.8564 14.4477 25.8564C12.8351 25.8564 11.5157 25.3614 11.5157 24.7565C11.5157 24.1516 12.0724 23.6566 12.7528 23.6566C13.4058 23.6566 16.2266 22.6801 19.1296 21.4559C17.6671 21.2438 16.7872 20.9645 16.7872 20.6597C16.7872 20.0548 18.7663 19.5531 21.1851 19.5448C22.5101 19.5403 24.0991 19.4326 25.5303 19.2667C27.1645 18.8426 28.958 18.4623 30.9662 18.1203L31.4469 17.9945L27.9286 17.2575C25.9157 16.8358 27.6047 16.5159 32.7312 16.3348C33.9543 16.231 34.4553 15.638 34.0793 14.7188C34.0134 14.5578 33.9798 14.4001 33.9771 14.2475C27.385 14.3947 20.974 14.6906 17.96 15.1024C11.6422 15.9657 9.84131 15.8085 11.2213 14.5142C12.4007 13.4082 20.7233 11.6901 24.3199 11.8102C26.2054 11.8732 28.1342 11.3387 28.6062 10.6225C29.0781 9.90626 31.2142 9.36694 33.353 9.42396C33.8804 9.43802 34.4172 9.42642 34.9366 9.39342C34.1733 8.67241 34.7846 8.37489 37.1096 7.38137C37.5559 7.19067 37.9817 6.96566 38.3689 6.72254C36.296 6.70274 33.4988 6.73153 30.2741 6.81544C11.8607 7.29457 17.9236 5.67727 38.1947 4.70259C38.9034 4.66851 39.6123 4.63325 40.3176 4.59706C40.3212 4.56665 40.3231 4.53678 40.3231 4.50749C40.3231 3.68207 42.0135 2.68965 44.0797 2.3021C47.291 1.69976 47.5038 1.4755 45.5456 0.757093C44.2858 0.29488 59.3513 -0.0437443 79.0246 0.00459524C98.6979 0.052921 112.419 0.438754 109.517 0.861968C105.008 1.51936 104.752 1.68107 107.758 1.97204C108.892 2.0819 116.169 2.22226 126.482 2.34981C136.795 2.22226 144.071 2.0819 145.206 1.97204C148.212 1.68107 147.956 1.51936 143.447 0.861968C140.544 0.438754 154.266 0.052921 173.939 0.00459524C193.612 -0.0437443 208.678 0.29488 207.418 0.757093C205.46 1.4755 205.673 1.69976 208.884 2.3021C210.95 2.68965 212.641 3.68207 212.641 4.50749C212.641 4.53678 212.642 4.56665 212.646 4.59706C213.351 4.63325 214.06 4.66851 214.769 4.70259C235.04 5.67727 241.103 7.29457 222.69 6.81544C219.465 6.73153 216.668 6.70274 214.595 6.72254C214.982 6.96566 215.408 7.19067 215.854 7.38137C218.179 8.37489 218.79 8.67241 218.027 9.39342C218.546 9.42642 219.083 9.43802 219.611 9.42396C221.749 9.36694 223.886 9.90626 224.358 10.6225C224.83 11.3387 226.758 11.8732 228.644 11.8102C231.111 11.7278 235.802 12.5103 238.885 13.367C239.289 13.4546 239.599 13.5471 239.818 13.6446C240.763 13.9471 241.459 14.2484 241.742 14.5142C241.811 14.5789 241.872 14.6408 241.925 14.6998C242.838 14.9671 243.927 15.1359 244.934 15.1359C247.778 15.1359 248.251 15.5072 247.741 17.3356C247.273 19.013 247.705 19.5354 249.559 19.5354C250.896 19.5354 251.643 19.8611 251.218 20.2591C251.096 20.3736 251.031 20.5394 251.019 20.7376C255.641 21.0339 258.655 21.4314 258.369 21.8802C258.05 22.3824 255.445 23.1235 252.461 23.5777C252.487 23.7791 252.367 23.8701 252.091 23.805C251.079 23.5665 248.057 24.7617 246.164 25.9018C246.091 26.345 245.476 26.9097 244.566 27.4279C244.629 27.8742 245.527 27.9844 246.615 27.667C248.153 27.2185 248.079 27.4095 246.322 28.4289C245.934 28.6536 245.53 28.9258 245.14 29.2186C246.373 29.1787 247.898 29.1125 249.742 29.0224C255.866 28.7233 259.662 28.7559 258.179 29.0948C256.179 29.5516 255.802 30.062 256.72 31.0683C257.672 32.111 256.406 32.7243 251.261 33.7132C244.021 35.1047 239.431 36.606 238.806 37.7011C240.111 38.1077 241.044 38.6752 241.044 39.2078C241.044 39.3068 240.646 39.3958 239.925 39.4723C239.849 40.8031 236.038 42.3329 230.31 43.1054C226.618 43.6034 224.389 44.0794 225.358 44.1631C226.801 44.2879 226.76 44.5194 225.134 45.44C224.042 46.0583 219.956 46.3611 216.055 46.1129C211.82 45.8433 208.969 46.094 208.979 46.7352C209.001 48.0672 190.179 48.3526 174.973 47.2512C152.785 45.644 147.248 45.4406 150.914 46.3678C153.821 47.1027 153.236 47.2565 147.614 47.2355C143.856 47.2214 140.543 46.8607 140.252 46.4341C140 46.0641 138.94 45.7541 136.99 45.4999C134.252 45.8707 132.454 46.2175 132.194 46.4609C131.859 46.7751 130.266 47.0325 128.653 47.0325C124.962 47.0325 125.932 46.017 130.34 45.2674C130.755 45.1968 131.161 45.1217 131.543 45.0458C125.697 44.7244 116.763 44.5747 104.25 44.5713C90.2888 44.5674 82.647 44.2549 80.3228 43.581ZM235.808 20.219C239.333 20.2609 242.831 20.3508 245.984 20.4794C246.162 19.6569 245.657 19.0354 244.856 19.0955C244.049 19.156 240.355 19.2948 236.646 19.4038C235.028 19.4514 233.813 19.5078 232.951 19.5888C234.231 19.6823 235.28 19.917 235.808 20.219ZM30.8606 11.3757C30.8606 11.1089 31.3884 10.5848 32.0335 10.2109C32.6785 9.83704 33.2062 10.0553 33.2062 10.6959C33.2062 11.3366 32.6785 11.8607 32.0335 11.8607C31.3884 11.8607 30.8606 11.6425 30.8606 11.3757ZM202.672 1.96184C202.274 1.35691 202.506 0.861968 203.189 0.861968C203.872 0.861968 204.431 1.35691 204.431 1.96184C204.431 2.56678 204.199 3.06172 203.914 3.06172C203.63 3.06172 203.071 2.56678 202.672 1.96184ZM168.955 1.14237C174.921 0.942738 184.685 0.942738 190.651 1.14237C196.618 1.34199 191.736 1.50531 179.803 1.50531C167.87 1.50531 162.988 1.34198 168.955 1.14237ZM222.103 11.3757C222.103 11.1089 221.575 10.5848 220.93 10.2109C220.285 9.83704 219.757 10.0553 219.757 10.6959C219.757 11.3366 220.285 11.8607 220.93 11.8607C221.575 11.8607 222.103 11.6425 222.103 11.3757ZM50.2915 1.96184C50.6901 1.35691 50.4575 0.861968 49.7743 0.861968C49.0912 0.861968 48.5323 1.35691 48.5323 1.96184C48.5323 2.56678 48.765 3.06172 49.0495 3.06172C49.3339 3.06172 49.8928 2.56678 50.2915 1.96184ZM84.0087 1.14237C78.0422 0.942738 68.2789 0.942738 62.3124 1.14237C56.3459 1.34199 61.2276 1.50531 73.1606 1.50531C85.0936 1.50531 89.9752 1.34198 84.0087 1.14237ZM49.3377 41.5782C47.8864 41.316 45.5115 41.316 44.0602 41.5782C42.6089 41.8404 43.7963 42.0549 46.6989 42.0549C49.6016 42.0549 50.789 41.8404 49.3377 41.5782Z" fill="#FF4654"/>
</svg>
